<?xml version="1.0" standalone="no"?>
<!DOCTYPE svg PUBLIC "-//W3C//DTD SVG 20010904//EN"
 "http://www.w3.org/TR/2001/REC-SVG-20010904/DTD/svg10.dtd">
<svg version="1.0" xmlns="http://www.w3.org/2000/svg"
 width="371.987915pt" height="348.499221pt" viewBox="0 0 371.987915 348.499221"
 preserveAspectRatio="xMidYMid meet">
<metadata>
Created by potrace 1.12, written by Peter Selinger 2001-2015
</metadata>
<g transform="translate(-64.012085,449.497558) scale(0.100000,-0.100000)"
fill="#000000" stroke="none">
<path d="M2398 4489 c-50 -19 -1153 -660 -1178 -685 l-25 -24 -3 -693 c-3
-783 -8 -732 77 -786 118 -74 1119 -645 1143 -652 15 -4 42 -3 60 2 32 9 1015
569 1133 645 33 22 65 50 72 64 9 18 13 106 13 326 0 265 -2 303 -16 308 -17
6 -201 -94 -221 -122 -9 -11 -13 -64 -13 -179 0 -185 -5 -204 -67 -245 -21
-13 -229 -134 -463 -269 -386 -222 -429 -244 -470 -244 -40 1 -91 28 -475 249
-236 136 -444 257 -462 269 -66 44 -63 19 -63 616 0 384 3 547 11 565 16 35
26 41 514 322 386 222 435 248 475 248 41 1 88 -24 500 -261 270 -155 463
-272 475 -288 18 -24 20 -46 25 -276 4 -207 8 -251 20 -259 19 -12 22 -11 135
55 l95 56 0 269 0 268 -26 31 c-14 16 -51 45 -82 62 -31 18 -289 166 -572 330
-303 175 -529 299 -550 303 -19 3 -47 0 -62 -5z"/>
<path d="M2405 3989 c-16 -5 -181 -96 -365 -203 -354 -204 -367 -215 -343
-268 7 -16 117 -84 337 -211 180 -104 343 -195 363 -203 27 -12 45 -13 72 -6
20 5 149 75 286 154 l250 145 3 -326 c2 -252 -1 -328 -10 -336 -7 -7 -125 -77
-263 -156 -222 -128 -255 -144 -295 -144 -39 0 -75 18 -285 139 -132 76 -250
148 -262 159 -22 20 -23 25 -23 233 0 157 -3 214 -12 222 -39 32 -194 113
-212 110 -21 -3 -21 -7 -24 -343 -2 -263 1 -345 10 -357 16 -21 720 -427 771
-445 31 -11 44 -11 76 1 40 13 732 407 764 434 16 14 17 50 17 482 0 410 -2
469 -16 480 -28 24 -217 130 -231 130 -7 0 -129 -66 -270 -147 -316 -182 -295
-179 -465 -79 -156 90 -156 92 -2 181 142 81 166 86 237 51 30 -14 60 -26 68
-26 8 0 57 26 109 58 64 38 96 64 98 77 2 17 -21 35 -130 97 -128 74 -199 109
-215 107 -4 0 -21 -5 -38 -10z"/>
<path id="100" d="M675 1318 c-33 -18 -35 -28 -35 -150 0 -161 -3 -158 175 -158 l135 0
0 30 0 30 -125 0 -125 0 0 100 0 100 125 0 125 0 0 30 0 30 -127 0 c-77 0
-136 -5 -148 -12z"/>
<path d="M1055 1318 c-33 -18 -35 -28 -35 -150 0 -158 0 -158 155 -158 155 0
155 0 155 158 0 64 -4 122 -8 129 -4 6 -20 17 -35 22 -37 14 -207 13 -232 -1z
m215 -148 l0 -100 -95 0 -95 0 0 100 0 100 95 0 95 0 0 -100z"/>
<path d="M1400 1171 l0 -161 129 0 c115 0 131 2 155 21 25 20 26 23 26 134 0
161 2 159 -174 163 l-136 4 0 -161z m248 -4 l3 -98 -98 3 -98 3 -3 84 c-2 46
0 90 2 98 4 11 27 13 98 11 l93 -3 3 -98z"/>
<path d="M1810 1317 c-24 -12 -25 -15 -28 -142 -4 -170 -9 -165 174 -165 l134
0 0 30 0 29 -127 3 -128 3 0 30 0 30 128 3 127 3 0 29 0 29 -127 3 -128 3 0
30 0 30 128 3 127 3 0 29 0 30 -127 0 c-83 0 -137 -5 -153 -13z"/>
<path d="M2192 1320 c-51 -21 -57 -140 -8 -172 6 -4 59 -8 119 -8 l107 0 0
-35 0 -35 -130 0 -130 0 0 -30 0 -30 135 0 c131 0 137 1 160 25 19 18 25 35
25 70 0 35 -6 52 -25 70 -23 23 -31 25 -130 25 l-106 0 3 33 3 32 128 3 128 3
-3 27 -3 27 -125 2 c-69 1 -135 -2 -148 -7z"/>
<path d="M2537 1323 c-4 -3 -7 -64 -7 -135 0 -124 1 -130 25 -153 23 -24 31
-25 135 -25 105 0 112 1 136 25 24 24 25 28 22 157 l-3 133 -27 3 -28 3 0
-130 0 -131 -100 0 -100 0 0 130 c0 130 0 130 -23 130 -13 0 -27 -3 -30 -7z"/>
<path d="M2910 1170 l0 -160 30 0 30 0 0 65 c0 54 3 65 17 65 9 0 47 -29 84
-65 60 -58 71 -65 108 -65 39 0 41 2 41 30 0 26 -4 30 -28 30 -19 0 -39 11
-62 35 l-34 35 45 0 c62 0 79 20 79 91 0 91 -16 99 -184 99 l-126 0 0 -160z
m250 65 l0 -35 -95 0 -95 0 0 35 0 35 95 0 95 0 0 -35z"/>
<path d="M3340 1323 c-46 -17 -50 -30 -50 -175 l0 -138 30 0 30 0 0 65 0 65
125 0 125 0 0 30 0 30 -125 0 -125 0 0 35 0 35 125 0 125 0 0 30 0 30 -122 -1
c-68 0 -130 -3 -138 -6z"/>
<path d="M3720 1323 c-45 -17 -50 -32 -50 -152 0 -64 4 -121 8 -127 17 -27 56
-34 176 -34 l126 0 0 30 0 30 -125 0 -125 0 0 35 0 35 125 0 125 0 0 30 0 30
-125 0 -125 0 0 35 0 35 125 0 125 0 0 30 0 30 -122 -1 c-68 0 -130 -3 -138
-6z"/>
<path d="M4050 1170 l0 -160 30 0 30 0 0 65 c0 56 3 65 18 65 10 0 47 -29 82
-65 59 -60 68 -65 107 -65 41 0 43 1 43 30 0 26 -4 30 -28 30 -19 0 -39 11
-62 35 l-34 35 45 0 c62 0 79 20 79 91 0 30 -4 59 -8 66 -15 24 -66 33 -183
33 l-119 0 0 -160z m250 65 l0 -35 -95 0 -95 0 0 35 0 35 95 0 95 0 0 -35z"/>
</g>
</svg>
