<?xml version="1.0" standalone="no"?>
<!DOCTYPE svg PUBLIC "-//W3C//DTD SVG 20010904//EN"
 "http://www.w3.org/TR/2001/REC-SVG-20010904/DTD/svg10.dtd">
<svg version="1.0" xmlns="http://www.w3.org/2000/svg"
 width="371.987915pt" height="290.499221pt" viewBox="0 0 371.987915 290.499221"
 preserveAspectRatio="xMidYMid meet">
<metadata>
Created by potrace 1.12, written by Peter Selinger 2001-2015
</metadata>
<g transform="translate(-64.012085,449.497558) scale(0.100000,-0.100000)"
fill="#000000" stroke="none">
<path d="M2398 4489 c-50 -19 -1153 -660 -1178 -685 l-25 -24 -3 -693 c-3
-783 -8 -732 77 -786 118 -74 1119 -645 1143 -652 15 -4 42 -3 60 2 32 9 1015
569 1133 645 33 22 65 50 72 64 9 18 13 106 13 326 0 265 -2 303 -16 308 -17
6 -201 -94 -221 -122 -9 -11 -13 -64 -13 -179 0 -185 -5 -204 -67 -245 -21
-13 -229 -134 -463 -269 -386 -222 -429 -244 -470 -244 -40 1 -91 28 -475 249
-236 136 -444 257 -462 269 -66 44 -63 19 -63 616 0 384 3 547 11 565 16 35
26 41 514 322 386 222 435 248 475 248 41 1 88 -24 500 -261 270 -155 463
-272 475 -288 18 -24 20 -46 25 -276 4 -207 8 -251 20 -259 19 -12 22 -11 135
55 l95 56 0 269 0 268 -26 31 c-14 16 -51 45 -82 62 -31 18 -289 166 -572 330
-303 175 -529 299 -550 303 -19 3 -47 0 -62 -5z"/>
<path d="M2405 3989 c-16 -5 -181 -96 -365 -203 -354 -204 -367 -215 -343
-268 7 -16 117 -84 337 -211 180 -104 343 -195 363 -203 27 -12 45 -13 72 -6
20 5 149 75 286 154 l250 145 3 -326 c2 -252 -1 -328 -10 -336 -7 -7 -125 -77
-263 -156 -222 -128 -255 -144 -295 -144 -39 0 -75 18 -285 139 -132 76 -250
148 -262 159 -22 20 -23 25 -23 233 0 157 -3 214 -12 222 -39 32 -194 113
-212 110 -21 -3 -21 -7 -24 -343 -2 -263 1 -345 10 -357 16 -21 720 -427 771
-445 31 -11 44 -11 76 1 40 13 732 407 764 434 16 14 17 50 17 482 0 410 -2
469 -16 480 -28 24 -217 130 -231 130 -7 0 -129 -66 -270 -147 -316 -182 -295
-179 -465 -79 -156 90 -156 92 -2 181 142 81 166 86 237 51 30 -14 60 -26 68
-26 8 0 57 26 109 58 64 38 96 64 98 77 2 17 -21 35 -130 97 -128 74 -199 109
-215 107 -4 0 -21 -5 -38 -10z"/>
</g>
</svg>
